<mxfile host="Electron" agent="Mozilla/5.0 (Macintosh; Intel Mac OS X 10_15_7) AppleWebKit/537.36 (KHTML, like Gecko) draw.io/24.7.5 Chrome/126.0.6478.183 Electron/31.3.0 Safari/537.36" version="24.7.5">
  <diagram id="kcIGn_kX_1L25iIxUXLg" name="Page-1">
    <mxGraphModel dx="1003" dy="581" grid="1" gridSize="10" guides="1" tooltips="1" connect="1" arrows="1" fold="1" page="1" pageScale="1" pageWidth="850" pageHeight="1100" math="0" shadow="0">
      <root>
        <mxCell id="0" />
        <mxCell id="1" parent="0" />
        <mxCell id="EZAqd18MQriHtEKbU3QA-1" value="TLS&lt;br&gt;Prover" style="ellipse;whiteSpace=wrap;html=1;aspect=fixed;shadow=1;fontStyle=1;connectable=1;" parent="1" vertex="1">
          <mxGeometry x="200" y="260" width="80" height="80" as="geometry" />
        </mxCell>
        <mxCell id="EZAqd18MQriHtEKbU3QA-2" value="TLS&lt;br&gt;Server" style="ellipse;whiteSpace=wrap;html=1;aspect=fixed;shadow=1;fontStyle=1" parent="1" vertex="1">
          <mxGeometry x="38" y="260" width="80" height="80" as="geometry" />
        </mxCell>
        <mxCell id="58" value="" style="edgeStyle=none;html=1;" parent="1" source="GdnXkJGOJiVmK7E47u4y-43" target="32" edge="1">
          <mxGeometry relative="1" as="geometry" />
        </mxCell>
        <mxCell id="GdnXkJGOJiVmK7E47u4y-43" value="TLS&lt;br&gt;Verifier" style="ellipse;whiteSpace=wrap;html=1;aspect=fixed;shadow=1;fontStyle=1" parent="1" vertex="1">
          <mxGeometry x="360" y="260" width="80" height="80" as="geometry" />
        </mxCell>
        <mxCell id="GdnXkJGOJiVmK7E47u4y-45" value="" style="endArrow=classic;startArrow=classic;html=1;rounded=0;entryX=0;entryY=0.5;entryDx=0;entryDy=0;" parent="1" source="EZAqd18MQriHtEKbU3QA-2" target="EZAqd18MQriHtEKbU3QA-1" edge="1">
          <mxGeometry width="50" height="50" relative="1" as="geometry">
            <mxPoint x="350" y="490" as="sourcePoint" />
            <mxPoint x="400" y="440" as="targetPoint" />
          </mxGeometry>
        </mxCell>
        <mxCell id="GdnXkJGOJiVmK7E47u4y-46" value="TLS" style="whiteSpace=wrap;html=1;fillColor=none;strokeColor=none;fontSize=10;" parent="1" vertex="1">
          <mxGeometry x="126.5" y="286" width="67.5" height="10" as="geometry" />
        </mxCell>
        <mxCell id="GdnXkJGOJiVmK7E47u4y-49" value="" style="endArrow=classic;html=1;rounded=0;startArrow=classic;startFill=1;exitX=1;exitY=0.5;exitDx=0;exitDy=0;entryX=0;entryY=0.5;entryDx=0;entryDy=0;" parent="1" source="EZAqd18MQriHtEKbU3QA-1" target="GdnXkJGOJiVmK7E47u4y-43" edge="1">
          <mxGeometry width="50" height="50" relative="1" as="geometry">
            <mxPoint x="280" y="289" as="sourcePoint" />
            <mxPoint x="360" y="289" as="targetPoint" />
          </mxGeometry>
        </mxCell>
        <mxCell id="10" value="MPC-TLS" style="edgeLabel;html=1;align=center;verticalAlign=middle;resizable=0;points=[];fontSize=10;labelBackgroundColor=none;" parent="GdnXkJGOJiVmK7E47u4y-49" vertex="1" connectable="0">
          <mxGeometry x="-0.5071" relative="1" as="geometry">
            <mxPoint x="20" y="-9" as="offset" />
          </mxGeometry>
        </mxCell>
        <mxCell id="32" value="Attestation&lt;br&gt;Verifier" style="ellipse;whiteSpace=wrap;html=1;aspect=fixed;shadow=1;fontStyle=1" parent="1" vertex="1">
          <mxGeometry x="520" y="260" width="80" height="80" as="geometry" />
        </mxCell>
        <mxCell id="33" value="" style="endArrow=classic;html=1;entryX=0;entryY=0.5;entryDx=0;entryDy=0;" parent="1" target="32" edge="1">
          <mxGeometry width="50" height="50" relative="1" as="geometry">
            <mxPoint x="440" y="299.71" as="sourcePoint" />
            <mxPoint x="510" y="300" as="targetPoint" />
          </mxGeometry>
        </mxCell>
        <mxCell id="57" value="Attest" style="edgeLabel;html=1;align=center;verticalAlign=middle;resizable=0;points=[];fillColor=none;labelBackgroundColor=none;" parent="33" vertex="1" connectable="0">
          <mxGeometry x="-0.3267" y="1" relative="1" as="geometry">
            <mxPoint x="15" y="-8" as="offset" />
          </mxGeometry>
        </mxCell>
      </root>
    </mxGraphModel>
  </diagram>
</mxfile>
